<?xml version="1.0" encoding="utf-8"?>

<!DOCTYPE svg PUBLIC "-//W3C//DTD SVG 1.1//EN" "http://www.w3.org/Graphics/SVG/1.1/DTD/svg11.dtd">
<svg version="1.1" id="Layer_1" xmlns="http://www.w3.org/2000/svg" xmlns:xlink="http://www.w3.org/1999/xlink" x="0px" y="0px"
	 viewBox="336.0004 4.5466 1887.9996 1590.9063" enable-background="new 336.0004 4.5466 1887.9996 1590.9063" xml:space="preserve"
	>
<g id="XMLID_1_">
	<path fill="#FFFFFF" d="M1324.3458,1019.383c3.3199,24.39-10.96,49.29-35.38,55.72c-25.52,3.9399-56.99-1.42-63.74-30.78
		c-4.85-24.6,10.83-47.75,34.3199-54.45c-0.1899,0.3,9.5901-1.21,8.04-1.25C1290.0358,987.253,1319.9658,993.163,1324.3458,1019.383
		z"/>
	<path fill="#FFFFFF" d="M669.1758,546.863c8.17,3.77,13.34,3.3701,8.6801,12.9301c-3.06,6.3-6.58,12.36-9.73,18.62
		c-29.74,58.95-55.99,122.53-60.04,189.06c1.47,13.57-29.76-11.64-32.93-14.2c-11.02-7.61-20.86-15.73-31.18-24.4
		c-24.58-20.65-48.82-44.18-67.23-70.61c-17.34-24.88-33.19-49.29-29.18-80.91c2.92-30.47,39.78-41.52,64.96-45.72
		c34.65-2.7,69.92-2.12,104.28,3.54C634.1358,538.023,652.4758,541.393,669.1758,546.863z"/>
	<path fill="#FFFFFF" d="M1001.1458,930.643c3.73-1.31-4.02,0.96-4.41,1.18c0.1201,0,1.22-0.28,4.07-1.06
		c-67.06,18.42-40.37,121.0099,28.72,105.41C1094.7258,1014.533,1067.0658,908.223,1001.1458,930.643z M1110.1658,994.513
		c1.3101,80.22-53.74,150.8801-134.84,160.19c-75.42,8.66-157.27-48.35-160.86-127.75c-3.53-78,41.95-162.67,127.99-169.73
		C1026.1958,850.503,1108.6858,904.753,1110.1658,994.513z"/>
	<path fill="#FFFFFF" d="M1408.1058,752.793c-0.0701,0.0099-0.13,0.02-0.1801,0.03
		C1407.9758,752.813,1408.0358,752.813,1408.1058,752.793z M1412.6259,752.063c-0.0601,0-3.4401,0.55-4.51,0.73
		c0.38-0.05,1.13-0.17,2.3999-0.37c-33.09,5.72-52.6,33.29-44.08,66.22c7.15,27.63,32.4,45.49,60.98,40.32
		c66.15-11.98,51.1901-116.98-15.0599-106.84C1412.5059,752.093,1412.5958,752.073,1412.6259,752.063z M1624.6858,771.413
		c0.29,80.24-48.83,151.96-133.48,158.28c-73.79,5.51-164.12-52.04-161.67-133.85c1.25-41.65,7.14-79.71,36.3201-111.87
		c22.5399-24.83,55.59-45.15,89.9099-46.93c42.38-0.9901,82.64,6.34,116.29,34.03
		C1601.6758,695.443,1624.5558,732.053,1624.6858,771.413z"/>
	<path fill="#FFFFFF" d="M1578.1458,231.403c0.28,36.19-3.48,71.93-9.6499,107.57c-0.9501,5.5-1.62,41.42-11.88,33.22
		c-12.51-8.93-25.3501-17.4-38.64-25.1c-27.3301-15.84-56.52-27.12-85.87-38.46c-17.37-6.71-34.64-12.96-52.27-18.91
		c-8.55-1.99-29.98-4.06-22.9-16.45c30.17-52.82,71.28-103.21,120.14-139.78c24.67-14.83,55.22-23.3,75.88,2.95
		C1573.8658,163.023,1577.8958,198.813,1578.1458,231.403z"/>
	<path fill="#19171E" d="M2161.5259,1016.583c33.45,119.3101,58.1399,269.87-46.9202,361.36
		c-46.96,40.9-106.8699,54.09-167.0599,56.53c-15.13,0.62-11.95,18.5599-16.01,30.35c-4.48,14.98-13.0299,28.23-19.11,42.54
		c-20.71,28.97-35.33,51.39-73.1899,57.4399c-32.0801,5.13-65.26-0.45-97.49-0.37c-37.5601-0.3099-75.12-0.03-112.67-0.4
		c-68.09,2.3501-136.51,1.3501-204.6,1.16c-66.6-0.1799-133.1901,2.04-199.78,1.8c-26.97-0.1-64.51,2.72-86.8199-15.48
		c-19.91-16.2401-21.5-51.28-10.29-73.2401c11.4-22.2899,31.9399-38.8999,54.74-48.5599c13.0699-5.54,26.12-8.83,39.88-11.91
		c15.3199-3.4299,33.9,0.4401,48.01-7.38c32.78-18.1799-38.1-25.6599-45.5601-25.72c-34.1899-0.26-62.5299,7.5699-89.2699,29.79
		c-11.13,9.25-21.6801,20.2799-30.29,31.9199c-9.17,12.4-14.54,28.2101-24.35,8.3501c-13-26.3201-12.04-60.29,5.26-84.2301
		c38.9399-53.9299,115.72-43.26,173.0399-42.23c59.1901,1.0601,122.39-15.48,170.1-51.75c22.7401-17.2899,43.62-39.88,55.51-66.09
		c2.25-4.1,14.74-35.09,7.9301-36.9l11.6899-2.41c4.0601,5.66,18.76,10.3101,22.5901,11.4701c32.22,9.74,65.9199,4.1,97.8999-3.11
		c114.92-25.91,282.79,2.2699,311.4301,137.98c4.5601,15.72,4.6801,30.6899,7.03,46.63c2.22,15.0599,20.58,5.95,32.41,5.76
		c30.0699-4.6101,59.48-15.15,83.7198-33.76c49.7202-38.1801,73.3301-101.3201,72.02-162.73
		c-0.71-33.3101-6.47-61.7201-18.9299-92.5801c-12.23-30.3199-24.27-68.21-24.54-101.12c-0.0898-11.22-1.9199-31.18,8.4102-38.78
		c9.4199-6.93,21.4399-2.65,28.8298,4.88C2143.8357,964.853,2154.4258,991.263,2161.5259,1016.583z"/>
	<path fill="#19171E" d="M1758.6958,659.543c16.63,63.71,14.5601,135.93-3.48,199.0099c-18.16,63.4901-55.01,116.06-94.65,167.49
		c-34.66,44.98-80.7,80.1801-124.48,115.63c-9.84,7.9701-21.76,14.48-30.97,23.02c-2.38,2.21-2.3101,4.4-0.8401,6.46l-11.6899,2.41
		c-0.3-0.0699-0.63-0.1-1-0.0599c-9.53,0.9199-29.86,18.63-38.27,24.24c-108.77,59.1699-227.72,97.9399-350.36,114.35
		c-64.4,8.62-136.99,14.65-200.89-0.24c-27.6-8.42-54.14-14.99-79.91-28.77c-27.64-14.79-50.7-31.9301-74.62-51.9
		c-19.57-12.6899-33.73-35.37-48.39-52.9c-20.73-23.7699-36.22-52.71-50.94-80.4299c-29.64-55.8301-42.56-117.84-48.12-180.36
		c-1.4-15.7599-2.06-31.59-1.93-47.42c-1.73-15.17-17.23-21.31-28.41-30.24c-25-19.96-49.56-41.3-72.26-63.79
		c-44.51-44.13-90.59-91.32-115.3-149.96c-24.42-57.95-15.25-118.06,46.09-144.68c58.16-25.25,129.77-27.88,192.31-21.4
		c28.82,2.99,60.47,5.5,88.16,14.41c9.64,3.27,22.12,8.32,32.36,8.66c8.7599,0.3,22.86-21.41,28.09-27.99
		c42.26-42.54,86.41-77.46,137.86-108.24c52.93-31.66,113.01-48.79,172.85-61.56c62.0601-13.25,122.3401-10.99,185.05-13.23
		c14.0599-0.5,35.8199-44.85,44.65-56.52c17.86-23.57,36.74-46.58,56.4299-68.62c38.16-42.71,81.61-86.17,136.15-107
		c61.15-28.4,102.04,35.51,118.5601,84.09c21.5499,63.41,26.1699,128.55,27.5399,194.94c0.66,31.84-0.39,63.68-2.9199,95.41
		c-1.39,17.54-5.77,28.39,7.98,41.04c10.4399,9.59,21.36,21.58,28.7999,33.73c15.6801,24.02,31.51,47.48,44.2101,73.32
		C1741.4858,593.253,1750.0758,626.493,1758.6958,659.543z M1491.2058,929.693c84.65-6.32,133.77-78.04,133.48-158.28
		c-0.13-39.36-23.01-75.97-52.63-100.34c-33.65-27.69-73.91-35.02-116.29-34.03c-34.3199,1.78-67.37,22.1-89.9099,46.93
		c-29.1801,32.16-35.0701,70.22-36.3201,111.87C1327.0858,877.653,1417.4158,935.203,1491.2058,929.693z M1568.4958,338.973
		c6.1699-35.64,9.9299-71.38,9.6499-107.57c-0.25-32.59-4.2799-68.38-25.1899-94.96c-20.66-26.25-51.21-17.78-75.88-2.95
		c-48.86,36.57-89.97,86.96-120.14,139.78c-7.08,12.39,14.35,14.46,22.9,16.45c17.63,5.95,34.9,12.2,52.27,18.91
		c29.35,11.34,58.5399,22.62,85.87,38.46c13.2899,7.7,26.13,16.17,38.64,25.1
		C1566.8759,380.393,1567.5458,344.473,1568.4958,338.973z M1288.9658,1075.103c24.42-6.4301,38.7-31.3301,35.38-55.72
		c-4.38-26.22-34.3101-32.13-56.76-30.76c-0.36-0.01-1.33,0.05-3.1801,0.24c-0.0199,0.01-0.0399,0.01-0.0599,0.01
		c-0.25,0.02-0.51,0.05-0.78,0.08c-0.16,0.02-0.3099,0.03-0.47,0.05c-0.16,0.03-0.3101,0.07-0.47,0.1
		c-2.16,0.46-3.02,0.69-3.0801,0.77c-23.49,6.7-39.1699,29.85-34.3199,54.45
		C1231.9758,1073.683,1263.4458,1079.043,1288.9658,1075.103z M975.3258,1154.703c81.1-9.3099,136.15-79.97,134.84-160.19
		c-1.48-89.76-83.97-144.01-167.71-137.29c-86.04,7.06-131.52,91.73-127.99,169.73
		C818.0558,1106.353,899.9058,1163.363,975.3258,1154.703z M677.8558,559.793c4.66-9.56-0.51-9.16-8.6801-12.9301
		c-16.7-5.47-35.04-8.84-52.37-11.6899c-34.36-5.66-69.63-6.2401-104.28-3.54c-25.18,4.2-62.04,15.25-64.96,45.72
		c-4.01,31.62,11.84,56.03,29.18,80.91c18.41,26.43,42.65,49.96,67.23,70.61c10.32,8.67,20.16,16.79,31.18,24.4
		c3.17,2.56,34.4,27.77,32.93,14.2c4.05-66.53,30.3-130.11,60.04-189.06C671.2758,572.153,674.7958,566.093,677.8558,559.793z"/>
	<path fill="#19171E" d="M1412.3558,752.123c66.25-10.14,81.21,94.86,15.0599,106.84c-28.58,5.17-53.83-12.69-60.98-40.32
		c-8.52-32.93,10.99-60.5,44.08-66.22c0.3-0.05,0.6101-0.1,0.92-0.15c0.1801-0.03,0.37-0.06,0.55-0.09
		C1412.1058,752.163,1412.2358,752.143,1412.3558,752.123z"/>
	<path fill="#19171E" d="M1408.1158,752.793c1.0699-0.1801,4.45-0.73,4.51-0.73c-0.03,0.01-0.12,0.03-0.27,0.06
		c-0.0901,0.01-0.22,0.03-0.37,0.06c-0.1801,0.03-0.37,0.06-0.55,0.09c-0.3099,0.05-0.62,0.1-0.92,0.15
		C1409.2458,752.623,1408.4958,752.743,1408.1158,752.793z"/>
	<path fill="#19171E" d="M1407.9258,752.823c0.05-0.01,0.11-0.02,0.1801-0.03
		C1408.0358,752.813,1407.9758,752.813,1407.9258,752.823z"/>
	<path fill="#19171E" d="M1259.5458,989.873c1.01-0.29,2.04-0.54,3.0801-0.77c0.1599-0.03,0.3099-0.07,0.47-0.1
		c0.16-0.02,0.3099-0.03,0.47-0.05c0.26-0.03,0.52-0.05,0.78-0.08c0.02,0,0.04,0,0.0599-0.01c1.04-0.09,2.1001-0.17,3.1801-0.24
		C1269.1359,988.663,1259.3558,990.173,1259.5458,989.873z"/>
	<path fill="#19171E" d="M1001.1458,930.643c65.92-22.42,93.58,83.89,28.3799,105.53c-69.09,15.6-95.78-86.99-28.72-105.41
		C1000.9158,930.723,1001.0358,930.683,1001.1458,930.643z"/>
	<path fill="#19171E" d="M996.7358,931.823c0.39-0.22,8.14-2.49,4.41-1.18c-0.11,0.04-0.23,0.08-0.34,0.12
		C997.9558,931.543,996.8558,931.823,996.7358,931.823z"/>
</g>
</svg>
